<svg width="826" height="810" viewBox="0 0 826 810" fill="none" xmlns="http://www.w3.org/2000/svg">
    <path d="M118.859 23H23V118.5M694.016 23H803V118.5M803 691.5V787H705.5M120.5 787H23V691.5" stroke="white" stroke-width="46"/>
    <path fill-rule="evenodd" clip-rule="evenodd" d="M656 568H583V633.369C592.146 623.313 605.336 617 620 617C634.138 617 646.906 622.868 656 632.301V568Z" fill="white"/>
    <path fill-rule="evenodd" clip-rule="evenodd" d="M240 568H167V633.369C176.146 623.313 189.336 617 204 617C218.138 617 230.906 622.868 240 632.301V568Z" fill="white"/>
    <path d="M126 105H106V145H126V105ZM274.5 125H294.5V105H274.5V125ZM274.5 548.5H254.5V568.5H274.5V548.5ZM543 548.5V568.5H563V548.5H543ZM543 125V105H523V125H543ZM701 125H721V105H701V125ZM701 685V705H721V685H701ZM126 685H106V705H126V685ZM126 145H274.5V105H126V145ZM254.5 125V548.5H294.5V125H254.5ZM274.5 568.5H543V528.5H274.5V568.5ZM563 548.5V125H523V548.5H563ZM543 145H701V105H543V145ZM681 125V685H721V125H681ZM701 665H126V705H701V665ZM146 685V519H106V685H146Z" fill="white"/>
    <path d="M320 616.5C380.807 636.01 446.193 636.01 507 616.5" stroke="white" stroke-width="28"/>
</svg>
